<svg width="84" height="146" viewBox="0 0 84 146" fill="none" xmlns="http://www.w3.org/2000/svg">
<path d="M9.87031 85.184C10.969 85.184 11.801 85.6533 12.3663 86.592C12.9316 87.52 13.2143 88.8853 13.2143 90.688C13.2143 92.48 12.9263 93.8453 12.3503 94.784C11.785 95.712 10.9583 96.176 9.87031 96.176C8.77165 96.176 7.93965 95.712 7.37431 94.784C6.80898 93.8453 6.52631 92.4747 6.52631 90.672C6.52631 88.8693 6.80898 87.504 7.37431 86.576C7.93965 85.648 8.77165 85.184 9.87031 85.184ZM9.87031 85.952C8.28098 85.952 7.48631 87.5253 7.48631 90.672C7.48631 93.8293 8.28098 95.408 9.87031 95.408C10.649 95.408 11.2356 95.024 11.6303 94.256C12.0356 93.488 12.2383 92.2987 12.2383 90.688C12.2383 89.0773 12.0356 87.888 11.6303 87.12C11.2356 86.3413 10.649 85.952 9.87031 85.952ZM20.4032 89.072C21.2245 89.072 21.9019 89.36 22.4352 89.936C22.9685 90.5013 23.2352 91.328 23.2352 92.416C23.2352 93.1733 23.0965 93.84 22.8192 94.416C22.5525 94.9813 22.1792 95.4187 21.6992 95.728C21.2299 96.0267 20.6965 96.176 20.0992 96.176C18.9259 96.176 18.0672 95.728 17.5232 94.832C16.9899 93.9253 16.7232 92.7147 16.7232 91.2C16.7232 89.9733 16.8779 88.9067 17.1872 88C17.4965 87.0933 17.9392 86.4 18.5152 85.92C19.0912 85.4293 19.7739 85.184 20.5632 85.184C21.2779 85.184 21.9392 85.392 22.5472 85.808L22.1472 86.448C21.6352 86.1173 21.1019 85.952 20.5472 85.952C19.6832 85.952 18.9952 86.384 18.4832 87.248C17.9712 88.112 17.6992 89.2427 17.6672 90.64C18.3819 89.5947 19.2939 89.072 20.4032 89.072ZM20.0992 95.408C20.8032 95.408 21.3419 95.1413 21.7152 94.608C22.0992 94.064 22.2912 93.344 22.2912 92.448C22.2912 91.5627 22.1045 90.9067 21.7312 90.48C21.3685 90.0533 20.8832 89.84 20.2752 89.84C19.7419 89.84 19.2512 90 18.8032 90.32C18.3659 90.6293 17.9872 91.056 17.6672 91.6C17.6992 92.8373 17.9072 93.7813 18.2912 94.432C18.6752 95.0827 19.2779 95.408 20.0992 95.408ZM35.0066 83.136V97.6H34.1426V83.136H35.0066ZM48.7109 85.184C49.6069 85.184 50.3163 85.4453 50.8389 85.968C51.3723 86.4907 51.6389 87.1627 51.6389 87.984C51.6389 88.6773 51.4949 89.328 51.2069 89.936C50.9189 90.544 50.4656 91.2107 49.8469 91.936C49.2389 92.6613 48.2523 93.744 46.8869 95.184H51.9269L51.7989 96H45.7989V95.216C47.2603 93.6587 48.3056 92.5067 48.9349 91.76C49.5749 91.0027 50.0229 90.352 50.2789 89.808C50.5456 89.2533 50.6789 88.6613 50.6789 88.032C50.6789 87.4027 50.4923 86.9013 50.1189 86.528C49.7563 86.1547 49.2709 85.968 48.6629 85.968C48.1723 85.968 47.7349 86.0693 47.3509 86.272C46.9776 86.4747 46.6203 86.7787 46.2789 87.184L45.6389 86.704C46.0656 86.1813 46.5243 85.7973 47.0149 85.552C47.5163 85.3067 48.0816 85.184 48.7109 85.184ZM58.5672 85.184C59.6659 85.184 60.4979 85.6533 61.0632 86.592C61.6285 87.52 61.9112 88.8853 61.9112 90.688C61.9112 92.48 61.6232 93.8453 61.0472 94.784C60.4819 95.712 59.6552 96.176 58.5672 96.176C57.4685 96.176 56.6365 95.712 56.0712 94.784C55.5059 93.8453 55.2232 92.4747 55.2232 90.672C55.2232 88.8693 55.5059 87.504 56.0712 86.576C56.6365 85.648 57.4685 85.184 58.5672 85.184ZM58.5672 85.952C56.9779 85.952 56.1832 87.5253 56.1832 90.672C56.1832 93.8293 56.9779 95.408 58.5672 95.408C59.3459 95.408 59.9325 95.024 60.3272 94.256C60.7325 93.488 60.9352 92.2987 60.9352 90.688C60.9352 89.0773 60.7325 87.888 60.3272 87.12C59.9325 86.3413 59.3459 85.952 58.5672 85.952ZM68.5829 85.36V96H67.6549V86.384L65.0309 88.016L64.5989 87.328L67.7829 85.36H68.5829ZM77.3123 90.368C78.1336 90.6987 78.731 91.088 79.1043 91.536C79.4883 91.9733 79.6803 92.5387 79.6803 93.232C79.6803 93.8187 79.531 94.336 79.2323 94.784C78.9443 95.2213 78.5336 95.5627 78.0003 95.808C77.4776 96.0533 76.875 96.176 76.1923 96.176C75.5096 96.176 74.907 96.0533 74.3843 95.808C73.8723 95.5627 73.4723 95.2213 73.1843 94.784C72.907 94.336 72.7683 93.824 72.7683 93.248C72.7683 91.8827 73.531 90.896 75.0563 90.288C74.427 90 73.963 89.6693 73.6643 89.296C73.3763 88.912 73.2323 88.4267 73.2323 87.84C73.2323 87.296 73.371 86.8213 73.6483 86.416C73.9256 86.0107 74.2936 85.7067 74.7523 85.504C75.211 85.2907 75.7016 85.184 76.2243 85.184C76.747 85.184 77.2376 85.2853 77.6963 85.488C78.155 85.6907 78.523 85.9893 78.8003 86.384C79.0883 86.7787 79.2323 87.2587 79.2323 87.824C79.2323 88.3787 79.0776 88.8587 78.7683 89.264C78.459 89.6587 77.9736 90.0267 77.3123 90.368ZM74.1603 87.856C74.1603 88.368 74.3043 88.7733 74.5923 89.072C74.891 89.3707 75.403 89.6533 76.1283 89.92L76.6243 90.096C77.2216 89.776 77.6483 89.4453 77.9043 89.104C78.171 88.7627 78.3043 88.3467 78.3043 87.856C78.3043 87.248 78.1123 86.7733 77.7283 86.432C77.355 86.0907 76.8536 85.92 76.2243 85.92C75.6163 85.92 75.1203 86.0907 74.7363 86.432C74.3523 86.7733 74.1603 87.248 74.1603 87.856ZM76.2083 95.392C76.9656 95.392 77.5683 95.2053 78.0163 94.832C78.475 94.448 78.7043 93.9147 78.7043 93.232C78.7043 92.8053 78.6243 92.4533 78.4643 92.176C78.3043 91.888 78.059 91.6427 77.7283 91.44C77.3976 91.2267 76.9336 91.008 76.3363 90.784L75.7923 90.576C75.0776 90.8533 74.555 91.2107 74.2243 91.648C73.9043 92.0747 73.7443 92.608 73.7443 93.248C73.7443 93.9307 73.9683 94.4587 74.4163 94.832C74.8643 95.2053 75.4616 95.392 76.2083 95.392Z" fill="white"/>
<path d="M23.2723 132.648C23.7283 132.648 24.1123 132.712 24.4243 132.84C24.7443 132.96 25.0643 133.148 25.3843 133.404L25.0003 133.884C24.7203 133.66 24.4523 133.5 24.1963 133.404C23.9403 133.308 23.6483 133.26 23.3203 133.26C22.5443 133.26 21.9123 133.556 21.4243 134.148C20.9443 134.74 20.7043 135.652 20.7043 136.884C20.7043 137.684 20.8163 138.356 21.0403 138.9C21.2643 139.444 21.5683 139.848 21.9523 140.112C22.3443 140.368 22.7883 140.496 23.2843 140.496C23.6763 140.496 24.0083 140.44 24.2803 140.328C24.5523 140.208 24.8283 140.036 25.1083 139.812L25.4803 140.28C24.8803 140.848 24.1403 141.132 23.2603 141.132C22.6203 141.132 22.0483 140.968 21.5443 140.64C21.0483 140.312 20.6563 139.832 20.3683 139.2C20.0883 138.56 19.9482 137.788 19.9482 136.884C19.9482 135.98 20.0963 135.212 20.3923 134.58C20.6883 133.94 21.0843 133.46 21.5803 133.14C22.0843 132.812 22.6483 132.648 23.2723 132.648ZM31.8587 139.608C31.8587 139.936 31.8987 140.172 31.9787 140.316C32.0667 140.46 32.2027 140.568 32.3867 140.64L32.2307 141.132C31.9427 141.076 31.7187 140.968 31.5587 140.808C31.4067 140.648 31.3067 140.404 31.2587 140.076C30.8267 140.78 30.1747 141.132 29.3027 141.132C28.7027 141.132 28.2267 140.964 27.8747 140.628C27.5307 140.284 27.3587 139.828 27.3587 139.26C27.3587 138.612 27.5867 138.112 28.0427 137.76C28.5067 137.408 29.1467 137.232 29.9627 137.232H31.1627V136.62C31.1627 136.116 31.0507 135.752 30.8267 135.528C30.6027 135.296 30.2307 135.18 29.7107 135.18C29.2307 135.18 28.6627 135.3 28.0067 135.54L27.8267 135.012C28.5307 134.732 29.1907 134.592 29.8067 134.592C31.1747 134.592 31.8587 135.256 31.8587 136.584V139.608ZM29.4227 140.568C30.1747 140.568 30.7547 140.2 31.1627 139.464V137.736H30.0707C29.4307 137.736 28.9427 137.86 28.6067 138.108C28.2707 138.356 28.1027 138.728 28.1027 139.224C28.1027 139.656 28.2187 139.988 28.4507 140.22C28.6827 140.452 29.0067 140.568 29.4227 140.568ZM36.3691 141.132C36.0251 141.132 35.7531 141.032 35.5531 140.832C35.3611 140.632 35.2651 140.336 35.2651 139.944V132.168L35.9611 132.084V139.92C35.9611 140.328 36.1291 140.532 36.4651 140.532C36.6331 140.532 36.7771 140.504 36.8971 140.448L37.0891 140.964C36.8651 141.076 36.6251 141.132 36.3691 141.132ZM40.4813 134.724V141H39.7853V134.724H40.4813ZM40.1213 131.964C40.2813 131.964 40.4093 132.012 40.5053 132.108C40.6013 132.204 40.6493 132.324 40.6493 132.468C40.6493 132.612 40.6013 132.732 40.5053 132.828C40.4093 132.924 40.2813 132.972 40.1213 132.972C39.9693 132.972 39.8453 132.924 39.7493 132.828C39.6533 132.732 39.6053 132.612 39.6053 132.468C39.6053 132.324 39.6533 132.204 39.7493 132.108C39.8453 132.012 39.9693 131.964 40.1213 131.964ZM45.9177 132.66C45.5577 132.66 45.2857 132.744 45.1017 132.912C44.9257 133.08 44.8377 133.348 44.8377 133.716V134.724H46.4937L46.3977 135.288H44.8377V141H44.1417V135.288H43.0497V134.724H44.1417V133.692C44.1417 133.196 44.2937 132.804 44.5977 132.516C44.9097 132.228 45.3377 132.084 45.8817 132.084C46.3697 132.084 46.8577 132.196 47.3457 132.42L47.1057 132.936C46.6897 132.752 46.2937 132.66 45.9177 132.66ZM51.0179 134.592C51.8499 134.592 52.4979 134.88 52.9619 135.456C53.4339 136.024 53.6699 136.82 53.6699 137.844C53.6699 138.86 53.4299 139.664 52.9499 140.256C52.4779 140.84 51.8299 141.132 51.0059 141.132C50.1739 141.132 49.5219 140.844 49.0499 140.268C48.5859 139.684 48.3539 138.884 48.3539 137.868C48.3539 137.204 48.4619 136.624 48.6779 136.128C48.8939 135.632 49.2019 135.252 49.6019 134.988C50.0019 134.724 50.4739 134.592 51.0179 134.592ZM51.0179 135.18C50.4099 135.18 49.9379 135.408 49.6019 135.864C49.2659 136.32 49.0979 136.988 49.0979 137.868C49.0979 138.74 49.2619 139.404 49.5899 139.86C49.9259 140.316 50.3979 140.544 51.0059 140.544C51.6139 140.544 52.0859 140.316 52.4219 139.86C52.7659 139.404 52.9379 138.732 52.9379 137.844C52.9379 136.972 52.7699 136.312 52.4339 135.864C52.1059 135.408 51.6339 135.18 51.0179 135.18ZM59.1994 134.592C59.4474 134.592 59.6554 134.616 59.8234 134.664L59.6914 135.324C59.5154 135.276 59.3314 135.252 59.1394 135.252C58.7154 135.252 58.3714 135.408 58.1074 135.72C57.8514 136.024 57.6354 136.504 57.4594 137.16V141H56.7634V134.724H57.3634L57.4234 136.128C57.5914 135.608 57.8194 135.224 58.1074 134.976C58.4034 134.72 58.7674 134.592 59.1994 134.592ZM65.062 134.592C65.63 134.592 66.062 134.76 66.358 135.096C66.662 135.432 66.814 135.904 66.814 136.512V141H66.118V136.608C66.118 136.104 66.018 135.736 65.818 135.504C65.618 135.272 65.322 135.156 64.93 135.156C64.53 135.156 64.174 135.268 63.862 135.492C63.558 135.708 63.266 136.028 62.986 136.452V141H62.29V134.724H62.89L62.962 135.792C63.218 135.416 63.522 135.124 63.874 134.916C64.226 134.7 64.622 134.592 65.062 134.592ZM71.0438 134.724V141H70.3478V134.724H71.0438ZM70.6838 131.964C70.8438 131.964 70.9718 132.012 71.0678 132.108C71.1638 132.204 71.2118 132.324 71.2118 132.468C71.2118 132.612 71.1638 132.732 71.0678 132.828C70.9718 132.924 70.8438 132.972 70.6838 132.972C70.5318 132.972 70.4078 132.924 70.3118 132.828C70.2158 132.732 70.1678 132.612 70.1678 132.468C70.1678 132.324 70.2158 132.204 70.3118 132.108C70.4078 132.012 70.5318 131.964 70.6838 131.964ZM78.5322 139.608C78.5322 139.936 78.5722 140.172 78.6522 140.316C78.7402 140.46 78.8762 140.568 79.0602 140.64L78.9042 141.132C78.6162 141.076 78.3922 140.968 78.2322 140.808C78.0802 140.648 77.9802 140.404 77.9322 140.076C77.5002 140.78 76.8482 141.132 75.9762 141.132C75.3762 141.132 74.9002 140.964 74.5482 140.628C74.2042 140.284 74.0322 139.828 74.0322 139.26C74.0322 138.612 74.2602 138.112 74.7162 137.76C75.1802 137.408 75.8202 137.232 76.6362 137.232H77.8362V136.62C77.8362 136.116 77.7242 135.752 77.5002 135.528C77.2762 135.296 76.9042 135.18 76.3842 135.18C75.9042 135.18 75.3362 135.3 74.6802 135.54L74.5002 135.012C75.2042 134.732 75.8642 134.592 76.4802 134.592C77.8482 134.592 78.5322 135.256 78.5322 136.584V139.608ZM76.0962 140.568C76.8482 140.568 77.4282 140.2 77.8362 139.464V137.736H76.7442C76.1042 137.736 75.6162 137.86 75.2802 138.108C74.9442 138.356 74.7762 138.728 74.7762 139.224C74.7762 139.656 74.8922 139.988 75.1242 140.22C75.3562 140.452 75.6802 140.568 76.0962 140.568Z" fill="white"/>
<path fill-rule="evenodd" clip-rule="evenodd" d="M5.43368 132.295C6.65892 132.295 7.84852 132.709 8.78648 133.46V133.46C10.0117 134.441 10.7324 135.835 10.8195 137.386C10.903 138.917 10.3309 140.414 9.25055 141.495L5.66926 145.029C5.53054 145.167 5.28992 145.166 5.1512 145.028L1.62051 141.497C0.537701 140.415 -0.0356278 138.916 0.0490816 137.386C0.135007 135.835 0.85689 134.441 2.08088 133.46C3.0176 132.709 4.20846 132.295 5.43368 132.295ZM3.02744 137.684C3.02744 139.012 4.10654 140.091 5.43368 140.091C6.76078 140.091 7.84114 139.012 7.83991 137.684C7.83991 136.357 6.76081 135.278 5.43368 135.278C4.10657 135.278 3.02744 136.357 3.02744 137.684Z" fill="white"/>
<path d="M5.43367 136.512C4.78668 136.512 4.26123 137.037 4.26123 137.684C4.26123 138.331 4.78668 138.856 5.43367 138.856C6.08066 138.856 6.60612 138.331 6.60612 137.684C6.60612 137.037 6.08066 136.512 5.43367 136.512Z" fill="white"/>
<path d="M20.352 17.104C24.048 17.104 27.192 17.752 29.784 19.048C32.424 20.296 34.416 22 35.76 24.16C37.104 26.272 37.776 28.624 37.776 31.216C37.776 33.76 37.296 36.136 36.336 38.344C35.376 40.552 33.576 43.144 30.936 46.12C28.344 49.096 24.504 52.816 19.416 57.28H38.856L37.488 67H4.872V58.072C10.584 52.552 14.784 48.352 17.472 45.472C20.16 42.544 22.032 40.144 23.088 38.272C24.144 36.352 24.672 34.456 24.672 32.584C24.672 30.808 24.168 29.416 23.16 28.408C22.152 27.352 20.76 26.824 18.984 26.824C17.304 26.824 15.792 27.232 14.448 28.048C13.152 28.816 11.832 30.064 10.488 31.792L3.072 25.816C5.136 23.08 7.608 20.944 10.488 19.408C13.416 17.872 16.704 17.104 20.352 17.104ZM62.0715 17.104C68.2155 17.104 72.9195 19.312 76.1835 23.728C79.4475 28.144 81.0795 34.456 81.0795 42.664C81.0795 50.872 79.4475 57.208 76.1835 61.672C72.9195 66.088 68.2155 68.296 62.0715 68.296C55.9275 68.296 51.1995 66.088 47.8875 61.672C44.6235 57.208 42.9915 50.872 42.9915 42.664C42.9915 34.408 44.6235 28.096 47.8875 23.728C51.1995 19.312 55.9275 17.104 62.0715 17.104ZM62.0715 26.464C60.5835 26.464 59.4075 26.968 58.5435 27.976C57.6795 28.936 57.0555 30.592 56.6715 32.944C56.2875 35.248 56.0955 38.488 56.0955 42.664C56.0955 46.888 56.2875 50.176 56.6715 52.528C57.0555 54.832 57.6795 56.488 58.5435 57.496C59.4075 58.456 60.5835 58.936 62.0715 58.936C63.5595 58.936 64.7115 58.48 65.5275 57.568C66.3915 56.608 67.0155 54.976 67.3995 52.672C67.7835 50.32 67.9755 46.984 67.9755 42.664C67.9755 38.344 67.7835 35.032 67.3995 32.728C67.0155 30.376 66.3915 28.744 65.5275 27.832C64.7115 26.92 63.5595 26.464 62.0715 26.464Z" fill="white"/>
</svg>
